<?xml version="1.0" encoding="UTF-8" standalone="no"?>
<!DOCTYPE svg PUBLIC "-//W3C//DTD SVG 1.1//EN" "http://www.w3.org/Graphics/SVG/1.1/DTD/svg11.dtd">
<svg version="1.1" xmlns="http://www.w3.org/2000/svg" xmlns:xlink="http://www.w3.org/1999/xlink" preserveAspectRatio="xMidYMid meet" viewBox="212.83121384559246 218.99999999999983 216.33757230881503 205.5904112907558" width="212.34" height="201.59"><defs><path d="M323.28 220.17L324.89 220.37L326.49 220.65L328.06 221.01L329.61 221.45L331.14 221.96L332.64 222.54L334.12 223.19L335.57 223.91L336.99 224.7L338.38 225.56L339.74 226.48L341.07 227.46L342.36 228.5L343.62 229.61L344.85 230.77L346.03 231.98L347.18 233.26L348.28 234.58L349.35 235.96L350.37 237.39L351.35 238.86L352.28 240.38L353.17 241.95L354.01 243.56L354.8 245.21L355.54 246.91L356.22 248.64L356.86 250.41L357.44 252.21L357.96 254.05L358.43 255.92L358.84 257.82L359.19 259.75L359.48 261.71L359.7 263.7L359.87 265.7L359.97 267.73L360 269.79L359.97 271.84L359.9 273.31L361.02 272.84L362.92 272.12L364.86 271.45L366.83 270.85L368.79 270.32L370.75 269.85L372.71 269.46L374.66 269.13L376.6 268.86L378.54 268.66L380.46 268.53L382.37 268.46L384.27 268.45L386.14 268.51L388 268.63L389.84 268.81L391.66 269.05L393.45 269.35L395.21 269.71L396.95 270.12L398.65 270.6L400.33 271.13L401.97 271.72L403.57 272.36L405.13 273.06L406.66 273.81L408.14 274.61L409.58 275.47L410.97 276.38L412.31 277.34L413.61 278.35L414.85 279.4L416.04 280.51L417.18 281.67L418.25 282.87L419.27 284.12L420.23 285.42L421.12 286.76L421.95 288.14L422.71 289.57L423.4 291.04L424.03 292.56L424.57 294.11L425.04 295.69L425.43 297.28L425.74 298.88L425.96 300.48L426.1 302.09L426.17 303.7L426.16 305.31L426.07 306.92L425.9 308.53L425.66 310.13L425.35 311.72L424.97 313.31L424.52 314.89L423.99 316.45L423.4 318.01L422.74 319.55L422.01 321.07L421.22 322.57L420.36 324.06L419.45 325.52L418.47 326.96L417.42 328.37L416.32 329.75L415.16 331.11L413.95 332.44L412.68 333.73L411.35 335L409.97 336.22L408.53 337.41L407.04 338.56L405.51 339.67L403.92 340.74L402.29 341.76L400.6 342.74L398.88 343.66L397.1 344.54L395.29 345.37L393.43 346.15L391.53 346.87L389.58 347.54L387.62 348.14L385.66 348.68L385.41 348.73L386.27 349.79L387.5 351.44L388.68 353.12L389.79 354.82L390.84 356.54L391.82 358.28L392.74 360.03L393.59 361.8L394.38 363.58L395.1 365.37L395.76 367.16L396.35 368.96L396.88 370.77L397.34 372.57L397.73 374.37L398.07 376.18L398.34 377.97L398.54 379.76L398.68 381.54L398.76 383.31L398.77 385.06L398.72 386.8L398.6 388.53L398.42 390.23L398.18 391.91L397.87 393.57L397.5 395.2L397.07 396.81L396.57 398.38L396.01 399.93L395.39 401.43L394.7 402.91L393.95 404.34L393.14 405.74L392.27 407.1L391.33 408.41L390.33 409.67L389.27 410.89L388.15 412.05L386.96 413.16L385.71 414.22L384.4 415.23L383.05 416.16L381.65 417.02L380.23 417.8L378.77 418.51L377.29 419.15L375.78 419.71L374.24 420.19L372.68 420.6L371.11 420.94L369.51 421.21L367.89 421.41L366.27 421.53L364.63 421.59L362.97 421.58L361.31 421.49L359.65 421.34L357.97 421.12L356.3 420.83L354.62 420.48L352.95 420.05L351.28 419.57L349.61 419.01L347.96 418.39L346.31 417.71L344.67 416.96L343.04 416.15L341.43 415.28L339.84 414.34L338.27 413.35L336.71 412.29L335.18 411.17L333.68 409.99L332.2 408.75L330.75 407.45L329.33 406.1L327.95 404.68L326.6 403.21L325.29 401.68L324.01 400.1L322.78 398.46L321.6 396.78L320.48 395.07L320 394.28L319.52 395.07L318.4 396.78L317.22 398.46L315.99 400.1L314.71 401.68L313.4 403.21L312.05 404.68L310.67 406.1L309.25 407.45L307.8 408.75L306.32 409.99L304.82 411.17L303.29 412.29L301.73 413.35L300.16 414.34L298.57 415.28L296.96 416.15L295.33 416.96L293.69 417.71L292.04 418.39L290.39 419.01L288.72 419.57L287.05 420.05L285.38 420.48L283.7 420.83L282.03 421.12L280.35 421.34L278.69 421.49L277.03 421.58L275.37 421.59L273.73 421.53L272.11 421.41L270.49 421.21L268.89 420.94L267.32 420.6L265.76 420.19L264.22 419.71L262.71 419.15L261.23 418.51L259.77 417.8L258.35 417.02L256.95 416.16L255.6 415.23L254.29 414.22L253.04 413.16L251.85 412.05L250.73 410.89L249.67 409.67L248.67 408.41L247.73 407.1L246.86 405.74L246.05 404.34L245.3 402.91L244.61 401.43L243.99 399.93L243.43 398.38L242.93 396.81L242.5 395.2L242.13 393.57L241.82 391.91L241.58 390.23L241.4 388.53L241.28 386.8L241.23 385.06L241.24 383.31L241.32 381.54L241.46 379.76L241.66 377.97L241.93 376.18L242.27 374.37L242.66 372.57L243.12 370.77L243.65 368.96L244.24 367.16L244.9 365.37L245.62 363.58L246.41 361.8L247.26 360.03L248.18 358.28L249.16 356.54L250.21 354.82L251.32 353.12L252.5 351.44L253.73 349.79L254.59 348.73L254.34 348.68L252.38 348.14L250.42 347.54L248.47 346.87L246.57 346.15L244.71 345.37L242.9 344.54L241.12 343.66L239.4 342.74L237.71 341.76L236.08 340.74L234.49 339.67L232.96 338.56L231.47 337.41L230.03 336.22L228.65 335L227.32 333.73L226.05 332.44L224.84 331.11L223.68 329.75L222.58 328.37L221.53 326.96L220.55 325.52L219.64 324.06L218.78 322.57L217.99 321.07L217.26 319.55L216.6 318.01L216.01 316.45L215.48 314.89L215.03 313.31L214.65 311.72L214.34 310.13L214.1 308.53L213.93 306.92L213.84 305.31L213.83 303.7L213.9 302.09L214.04 300.48L214.26 298.88L214.57 297.28L214.96 295.69L215.43 294.11L215.97 292.56L216.6 291.04L217.29 289.57L218.05 288.14L218.88 286.76L219.77 285.42L220.73 284.12L221.75 282.87L222.82 281.67L223.96 280.51L225.15 279.4L226.39 278.35L227.69 277.34L229.03 276.38L230.42 275.47L231.86 274.61L233.34 273.81L234.87 273.06L236.43 272.36L238.03 271.72L239.67 271.13L241.35 270.6L243.05 270.12L244.79 269.71L246.55 269.35L248.34 269.05L250.16 268.81L252 268.63L253.86 268.51L255.73 268.45L257.63 268.46L259.54 268.53L261.46 268.66L263.4 268.86L265.34 269.13L267.29 269.46L269.25 269.85L271.21 270.32L273.17 270.85L275.14 271.45L277.08 272.12L278.98 272.84L280.11 273.31L280.03 271.84L280 269.79L280.03 267.73L280.13 265.7L280.3 263.7L280.52 261.71L280.81 259.75L281.16 257.82L281.57 255.92L282.04 254.05L282.56 252.21L283.14 250.41L283.78 248.64L284.46 246.91L285.2 245.21L285.99 243.56L286.83 241.95L287.72 240.38L288.65 238.86L289.63 237.39L290.65 235.96L291.72 234.58L292.82 233.26L293.97 231.98L295.15 230.77L296.38 229.61L297.64 228.5L298.93 227.46L300.26 226.48L301.62 225.56L303.01 224.7L304.43 223.91L305.88 223.19L307.36 222.54L308.86 221.96L310.39 221.45L311.94 221.01L313.51 220.65L315.11 220.37L316.72 220.17L318.35 220.04L320 220L321.65 220.04L323.28 220.17Z" id="a8A5uJh65"></path><path d="M321.4 251.06L321.85 252.94L322.28 254.76L322.71 256.52L323.12 258.23L323.53 259.89L323.91 261.5L324.28 263.07L324.64 264.6L324.98 266.09L325.3 267.55L325.61 268.98L325.89 270.39L326.16 271.78L326.4 273.15L326.48 273.64L326.62 274.36L326.82 275.53L327 276.74L327.15 277.99L327.27 279.27L327.37 280.57L327.44 281.91L327.49 283.27L327.5 284.66L327.5 285L327.5 285.34L327.49 286.73L327.44 288.09L327.37 289.43L327.27 290.73L327.15 292.01L327 293.26L326.82 294.47L326.62 295.64L326.48 296.36L326.4 296.85L326.16 298.22L325.89 299.61L325.61 301.02L325.3 302.45L324.98 303.91L324.64 305.4L324.28 306.93L323.91 308.5L323.53 310.11L323.12 311.77L322.71 313.48L322.28 315.24L321.85 317.06L321.4 318.94L320.94 320.89L320.47 322.91L320 325L319.53 322.91L319.06 320.89L318.6 318.94L318.15 317.06L317.72 315.24L317.29 313.48L316.88 311.77L316.47 310.11L316.09 308.5L315.72 306.93L315.36 305.4L315.02 303.91L314.7 302.45L314.39 301.02L314.11 299.61L313.84 298.22L313.6 296.85L313.52 296.36L313.38 295.64L313.18 294.47L313 293.26L312.85 292.01L312.73 290.73L312.63 289.43L312.56 288.09L312.51 286.73L312.5 285.34L312.5 285L312.5 284.66L312.51 283.27L312.56 281.91L312.63 280.57L312.73 279.27L312.85 277.99L313 276.74L313.18 275.53L313.38 274.36L313.52 273.64L313.6 273.15L313.84 271.78L314.11 270.39L314.39 268.98L314.7 267.55L315.02 266.09L315.36 264.6L315.72 263.07L316.09 261.5L316.47 259.89L316.88 258.23L317.29 256.52L317.72 254.76L318.15 252.94L318.6 251.06L319.06 249.11L319.53 247.09L320 245L320.47 247.09L320.94 249.11L320.94 249.11L321.4 251.06Z" id="bwduGO6TU"></path><path d="M390.76 303.48L389.11 304.49L387.51 305.47L385.96 306.42L384.47 307.34L383.01 308.23L381.6 309.1L380.23 309.94L378.88 310.75L377.57 311.53L376.28 312.29L375.01 313.02L373.76 313.73L372.52 314.41L371.29 315.06L370.85 315.29L370.2 315.65L369.15 316.2L368.06 316.74L366.92 317.27L365.74 317.78L364.53 318.28L363.28 318.76L362 319.22L360.68 319.67L360.36 319.77L360.04 319.88L358.71 320.29L357.4 320.67L356.11 321.02L354.84 321.33L353.58 321.6L352.35 321.84L351.15 322.05L349.97 322.22L349.24 322.31L348.75 322.39L347.37 322.58L345.97 322.76L344.54 322.92L343.09 323.08L341.6 323.22L340.07 323.36L338.51 323.49L336.9 323.62L335.25 323.75L333.55 323.88L331.8 324.02L329.99 324.16L328.12 324.3L326.19 324.46L324.2 324.63L322.13 324.81L320 325L321.84 323.9L323.62 322.84L325.33 321.8L326.98 320.79L328.58 319.81L330.12 318.86L331.62 317.94L333.07 317.05L334.48 316.18L335.86 315.34L337.2 314.53L338.52 313.75L339.81 312.99L341.08 312.26L342.33 311.55L343.57 310.87L344.8 310.21L345.24 309.99L345.88 309.63L346.93 309.08L348.03 308.54L349.17 308.01L350.34 307.5L351.56 307L352.81 306.52L354.09 306.05L355.4 305.61L355.73 305.51L356.05 305.4L357.37 304.99L358.68 304.61L359.97 304.26L361.25 303.95L362.5 303.68L363.73 303.44L364.94 303.23L366.11 303.06L366.84 302.97L367.33 302.89L368.71 302.7L370.11 302.52L371.54 302.36L373 302.2L374.49 302.06L376.01 301.92L377.58 301.79L379.18 301.66L380.84 301.53L382.54 301.4L384.29 301.26L386.1 301.12L387.96 300.98L389.89 300.82L391.89 300.65L393.95 300.47L396.08 300.28L394.24 301.38L392.47 302.44L392.47 302.44L390.76 303.48Z" id="aD7rYQE5"></path><path d="M250.11 300.82L252.04 300.98L253.9 301.12L255.71 301.26L257.46 301.4L259.16 301.53L260.82 301.66L262.42 301.79L263.99 301.92L265.51 302.06L267 302.2L268.46 302.36L269.89 302.52L271.29 302.7L272.67 302.89L273.16 302.97L273.89 303.06L275.06 303.23L276.27 303.44L277.5 303.68L278.75 303.95L280.03 304.26L281.32 304.61L282.63 304.99L283.95 305.4L284.27 305.51L284.6 305.61L285.91 306.05L287.19 306.52L288.44 307L289.66 307.5L290.83 308.01L291.97 308.54L293.07 309.08L294.12 309.63L294.76 309.99L295.2 310.21L296.43 310.87L297.67 311.55L298.92 312.26L300.19 312.99L301.48 313.75L302.8 314.53L304.14 315.34L305.52 316.18L306.93 317.05L308.38 317.94L309.88 318.86L311.42 319.81L313.02 320.79L314.67 321.8L316.38 322.84L318.16 323.9L320 325L317.87 324.81L315.8 324.63L313.81 324.46L311.88 324.3L310.01 324.16L308.2 324.02L306.45 323.88L304.75 323.75L303.1 323.62L301.49 323.49L299.93 323.36L298.4 323.22L296.91 323.08L295.46 322.92L294.03 322.76L292.63 322.58L291.25 322.39L290.76 322.31L290.03 322.22L288.85 322.05L287.65 321.84L286.42 321.6L285.16 321.33L283.89 321.02L282.6 320.67L281.29 320.29L279.96 319.88L279.64 319.77L279.32 319.67L278 319.22L276.72 318.76L275.47 318.28L274.26 317.78L273.08 317.27L271.94 316.74L270.85 316.2L269.8 315.65L269.15 315.29L268.71 315.06L267.48 314.41L266.24 313.73L264.99 313.02L263.72 312.29L262.43 311.53L261.12 310.75L259.77 309.94L258.4 309.1L256.99 308.23L255.53 307.34L254.04 306.42L252.49 305.47L250.89 304.49L249.24 303.48L247.53 302.44L245.76 301.38L243.92 300.28L246.05 300.47L248.11 300.65L248.11 300.65L250.11 300.82Z" id="b2hmBOUMtO"></path><path d="M324.69 329.08L326.16 330.34L327.58 331.55L328.97 332.73L330.3 333.87L331.6 334.97L332.86 336.05L334.09 337.1L335.27 338.13L336.43 339.13L337.55 340.13L338.63 341.11L339.69 342.08L340.72 343.05L341.72 344.01L342.08 344.36L342.62 344.86L343.47 345.69L344.32 346.57L345.17 347.49L346.02 348.45L346.87 349.45L347.72 350.49L348.55 351.56L349.38 352.68L349.58 352.95L349.78 353.23L350.58 354.36L351.35 355.49L352.07 356.61L352.76 357.73L353.41 358.83L354.02 359.93L354.59 361.01L355.12 362.07L355.43 362.74L355.65 363.18L356.26 364.44L356.86 365.72L357.46 367.02L358.06 368.36L358.66 369.73L359.26 371.14L359.87 372.59L360.49 374.07L361.12 375.6L361.77 377.18L362.44 378.81L363.13 380.48L363.85 382.21L364.59 384L365.37 385.85L366.18 387.75L367.02 389.72L365.41 388.31L363.85 386.95L362.33 385.64L360.86 384.38L359.44 383.17L358.06 381.99L356.72 380.85L355.42 379.75L354.16 378.67L352.94 377.62L351.75 376.6L350.6 375.59L349.48 374.59L348.39 373.61L347.33 372.64L346.3 371.67L345.3 370.71L344.95 370.36L344.41 369.86L343.56 369.03L342.71 368.15L341.85 367.23L341 366.27L340.15 365.27L339.31 364.23L338.47 363.16L337.64 362.05L337.45 361.77L337.24 361.49L336.44 360.36L335.68 359.24L334.95 358.11L334.26 357L333.61 355.89L333 354.79L332.43 353.71L331.9 352.65L331.59 351.98L331.37 351.54L330.76 350.28L330.16 349.01L329.56 347.7L328.96 346.36L328.37 344.99L327.76 343.58L327.15 342.14L326.53 340.65L325.9 339.12L325.25 337.54L324.58 335.91L323.89 334.24L323.17 332.51L322.43 330.72L321.65 328.88L320.84 326.97L320 325L321.61 326.41L323.18 327.77L323.18 327.77L324.69 329.08Z" id="c14O1qN1J"></path><path d="M317.57 330.72L316.83 332.51L316.11 334.24L315.42 335.91L314.75 337.54L314.1 339.12L313.47 340.65L312.85 342.14L312.24 343.58L311.63 344.99L311.04 346.36L310.44 347.7L309.84 349.01L309.24 350.28L308.63 351.54L308.41 351.98L308.1 352.65L307.57 353.71L307 354.79L306.39 355.89L305.74 357L305.05 358.11L304.32 359.24L303.56 360.36L302.76 361.49L302.55 361.77L302.36 362.05L301.53 363.16L300.69 364.23L299.85 365.27L299 366.27L298.15 367.23L297.29 368.15L296.44 369.03L295.59 369.86L295.05 370.36L294.7 370.71L293.7 371.67L292.67 372.64L291.61 373.61L290.52 374.59L289.4 375.59L288.25 376.6L287.06 377.62L285.84 378.67L284.58 379.75L283.28 380.85L281.94 381.99L280.56 383.17L279.14 384.38L277.67 385.64L276.15 386.95L274.59 388.31L272.98 389.72L273.82 387.75L274.63 385.85L275.41 384L276.15 382.21L276.87 380.48L277.56 378.81L278.23 377.18L278.88 375.6L279.51 374.07L280.13 372.59L280.74 371.14L281.34 369.73L281.94 368.36L282.54 367.02L283.14 365.72L283.74 364.44L284.35 363.18L284.57 362.74L284.88 362.07L285.41 361.01L285.98 359.93L286.59 358.83L287.24 357.73L287.93 356.61L288.65 355.49L289.42 354.36L290.22 353.23L290.42 352.95L290.62 352.68L291.45 351.56L292.28 350.49L293.13 349.45L293.98 348.45L294.83 347.49L295.68 346.57L296.53 345.69L297.38 344.86L297.92 344.36L298.28 344.01L299.28 343.05L300.31 342.08L301.37 341.11L302.45 340.13L303.57 339.13L304.73 338.13L305.91 337.1L307.14 336.05L308.4 334.97L309.7 333.87L311.03 332.73L312.42 331.55L313.84 330.34L315.31 329.08L316.82 327.77L318.39 326.41L320 325L319.16 326.97L318.35 328.88L318.35 328.88L317.57 330.72Z" id="a1sUXxqPBo"></path></defs><g><g><use xlink:href="#a8A5uJh65" opacity="1" fill="#ffb6c1" fill-opacity="1"></use></g><g><use xlink:href="#bwduGO6TU" opacity="1" fill="#fdf0f2" fill-opacity="1"></use></g><g><use xlink:href="#aD7rYQE5" opacity="1" fill="#fdf0f2" fill-opacity="1"></use></g><g><use xlink:href="#b2hmBOUMtO" opacity="1" fill="#fdf0f2" fill-opacity="1"></use></g><g><use xlink:href="#c14O1qN1J" opacity="1" fill="#fdf0f2" fill-opacity="1"></use></g><g><use xlink:href="#a1sUXxqPBo" opacity="1" fill="#fdf0f2" fill-opacity="1"></use></g></g></svg>