<?xml version="1.0" encoding="UTF-8" standalone="no"?>
<!DOCTYPE svg PUBLIC "-//W3C//DTD SVG 1.1//EN" "http://www.w3.org/Graphics/SVG/1.1/DTD/svg11.dtd">
<svg version="1.1" xmlns="http://www.w3.org/2000/svg" xmlns:xlink="http://www.w3.org/1999/xlink" preserveAspectRatio="xMidYMid meet" viewBox="118.99999999999994 219 404.00000000000006 204" width="400" height="200"><defs><path d="M312.59 420C250.41 420 200 375.23 200 320C200 264.77 250.41 220 312.59 220C374.78 220 425.19 264.77 520 320C425.19 375.23 374.78 420 312.59 420Z" id="fhY5wF1l"></path><path d="M314.44 420C372.74 420 420 375.23 420 320C420 264.77 372.74 220 314.44 220C256.15 220 208.89 264.77 120 320C208.89 375.23 256.15 420 314.44 420Z" id="a1j8RyHFhe"></path><path d="M265.77 310.02L268.21 310.04L268.7 310.04L272.37 310.07L278.88 310.16L285.22 310.28L291.38 310.43L297.38 310.61L303.19 310.81L308.84 311.04L314.31 311.29L319.61 311.56L324.74 311.85L329.69 312.16L334.48 312.48L339.09 312.82L343.54 313.16L347.81 313.52L351.91 313.88L355.84 314.25L359.61 314.63L363.2 315L366.62 315.37L369.88 315.75L372.97 316.12L375.89 316.48L378.64 316.84L381.22 317.18L383.64 317.52L385.89 317.84L387.98 318.15L389.89 318.44L391.65 318.71L393.23 318.96L394.65 319.19L395.91 319.39L397 319.57L397.93 319.72L398.69 319.84L399.29 319.93L399.73 319.98L400 320L399.73 320.02L399.29 320.07L398.69 320.16L397.93 320.28L397 320.43L395.91 320.61L394.65 320.81L393.23 321.04L391.65 321.29L389.89 321.56L387.98 321.85L385.89 322.16L383.64 322.48L381.22 322.82L378.64 323.16L375.89 323.52L372.97 323.88L369.88 324.25L366.62 324.63L363.2 325L359.61 325.37L355.84 325.75L351.91 326.12L347.81 326.48L343.54 326.84L339.09 327.18L334.48 327.52L329.7 327.84L324.74 328.15L319.61 328.44L314.31 328.71L308.84 328.96L303.2 329.19L297.38 329.39L291.39 329.57L285.22 329.72L278.89 329.84L272.37 329.93L268.65 329.96L268.2 329.96L265.76 329.98L263.3 330L260.81 330L259.82 330L258.83 330L256.33 330L253.86 329.98L251.42 329.96L250.86 329.96L247.3 329.93L240.8 329.84L234.48 329.72L228.33 329.57L222.36 329.39L216.55 329.19L210.92 328.96L205.47 328.71L200.18 328.44L195.07 328.15L190.12 327.84L185.35 327.52L180.75 327.18L176.32 326.84L172.06 326.48L167.97 326.12L164.04 325.75L160.29 325.37L156.71 325L153.29 324.63L150.04 324.25L146.96 323.88L144.05 323.52L141.31 323.16L138.73 322.82L136.32 322.48L134.07 322.16L131.99 321.85L130.08 321.56L128.33 321.29L126.75 321.04L125.33 320.81L124.08 320.61L122.99 320.43L122.07 320.28L121.3 320.16L120.71 320.07L120.27 320.02L120 320L120.27 319.98L120.71 319.93L121.3 319.84L122.07 319.72L122.99 319.57L124.08 319.39L125.33 319.19L126.75 318.96L128.33 318.71L130.08 318.44L131.99 318.15L134.07 317.84L136.32 317.52L138.73 317.18L141.31 316.84L144.05 316.48L146.96 316.12L150.04 315.75L153.29 315.37L156.71 315L160.29 314.63L164.04 314.25L167.97 313.88L172.06 313.52L176.32 313.16L180.75 312.82L185.35 312.48L190.13 312.16L195.07 311.85L200.18 311.56L205.47 311.29L210.93 311.04L216.56 310.81L222.36 310.61L228.34 310.43L234.48 310.28L240.81 310.16L247.3 310.07L250.82 310.04L251.41 310.04L253.85 310.02L256.32 310L258.82 310L259.82 310L260.82 310L263.31 310L265.77 310.02Z" id="a5ikB3Zp79"></path></defs><g><g><use xlink:href="#fhY5wF1l" opacity="1" fill="#ffb6c1" fill-opacity="1"></use></g><g><use xlink:href="#a1j8RyHFhe" opacity="1" fill="#ffb6c1" fill-opacity="1"></use></g><g><use xlink:href="#a5ikB3Zp79" opacity="1" fill="#fdf0f2" fill-opacity="1"></use></g></g></svg>