<?xml version="1.0"?>
<svg xmlns="http://www.w3.org/2000/svg" xmlns:xlink="http://www.w3.org/1999/xlink" version="1.1" viewBox="0 0 224 224" width="48px" height="48px"><g fill="none" fill-rule="nonzero" stroke="none" stroke-width="1" stroke-linecap="butt" stroke-linejoin="miter" stroke-miterlimit="10" stroke-dasharray="" stroke-dashoffset="0" font-family="none" font-weight="none" font-size="none" text-anchor="none" style="mix-blend-mode: normal"><path d="M0,224v-224h224v224z" fill="none"/><g fill="#f1c40f"><path d="M202.82752,10.416c-0.8512,-0.92736 -2.04736,-1.456 -3.30624,-1.456h-175.04256c-1.25888,0 -2.45504,0.52864 -3.30624,1.456c-0.8512,0.92736 -1.26784,2.1728 -1.15584,3.42272l15.7696,176.63296c0.16576,1.84576 1.45152,3.40032 3.23456,3.91104l71.7248,20.48704c0.39872,0.112 0.81536,0.17024 1.22752,0.17024c0.41216,0 0.8288,-0.05824 1.22752,-0.17024l71.78752,-20.48704c1.78304,-0.51072 3.0688,-2.06528 3.23456,-3.91104l15.76064,-176.63296c0.112,-1.24992 -0.30912,-2.49536 -1.15584,-3.42272zM53.76,129.93792l31.36,8.70016v-89.35808h17.92v116.48l-49.28,-13.66848zM170.48192,98.56l-4.72192,54.88l-44.8,12.32v-20.61248l30.24,-8.3104l1.12,-16.8l-31.36,5.40288v-76.16h53.76l-1.5456,17.92h-34.2944v35.84z"/></g></g></svg>
